<?xml version="1.0" encoding="iso-8859-1"?>
<!-- Uploaded to: SVG Repo, www.svgrepo.com, Generator: SVG Repo Mixer Tools -->
<!DOCTYPE svg PUBLIC "-//W3C//DTD SVG 1.1//EN" "http://www.w3.org/Graphics/SVG/1.1/DTD/svg11.dtd">
<svg fill="#000000" height="800px" width="800px" version="1.1" id="Capa_1" xmlns="http://www.w3.org/2000/svg" xmlns:xlink="http://www.w3.org/1999/xlink" 
	 viewBox="0 0 60 60" xml:space="preserve">
<g>
	<path d="M60,36.5c0-1.654-1.346-3-3-3H3c-1.654,0-3,1.346-3,3c0,1.635,1.316,2.964,2.944,2.994c1.289,1.725,3.6,3.496,6.05,5.364
		C13.216,48.076,18,51.724,18,55.5v1h24v-1c0-3.776,4.784-7.424,9.006-10.642c2.449-1.868,4.761-3.639,6.05-5.364
		C58.684,39.464,60,38.135,60,36.5z M3,35.5h54c0.552,0,1,0.448,1,1s-0.448,1-1,1H3c-0.552,0-1-0.448-1-1S2.448,35.5,3,35.5z
		 M19.924,54.5c-0.051-0.338-0.136-0.67-0.236-1h20.624c-0.1,0.33-0.184,0.662-0.236,1H19.924z M49.793,43.268
		c-3.242,2.472-6.785,5.177-8.589,8.232H18.796c-1.804-3.055-5.347-5.76-8.589-8.232c-1.733-1.321-3.4-2.592-4.6-3.768h48.785
		C53.193,40.676,51.526,41.946,49.793,43.268z"/>
	<path d="M10,32.5c0.553,0,1-0.447,1-1c0-4.963,4.037-9,9-9h2c0.553,0,1-0.447,1-1s-0.447-1-1-1h-2c-6.065,0-11,4.935-11,11
		C9,32.053,9.447,32.5,10,32.5z"/>
	<path d="M25,26.5h-5c-2.757,0-5,2.243-5,5c0,0.553,0.447,1,1,1s1-0.447,1-1c0-1.654,1.346-3,3-3h5c0.553,0,1-0.447,1-1
		S25.553,26.5,25,26.5z"/>
	<path d="M24,25.5c0.553,0,1-0.447,1-1s-0.447-1-1-1h-4c-4.411,0-8,3.589-8,8c0,0.553,0.447,1,1,1s1-0.447,1-1c0-3.309,2.691-6,6-6
		H24z"/>
	<path d="M25,29.5h-5c-0.553,0-1,0.447-1,1s0.447,1,1,1h5c0.553,0,1-0.447,1-1S25.553,29.5,25,29.5z"/>
	<path d="M32,20.5c-0.553,0-1,0.447-1,1s0.447,1,1,1h7c4.963,0,9,4.037,9,9c0,0.553,0.447,1,1,1s1-0.447,1-1c0-6.065-4.935-11-11-11
		H32z"/>
	<path d="M42,31.5c0,0.553,0.447,1,1,1s1-0.447,1-1c0-2.757-2.243-5-5-5h-5c-0.553,0-1,0.447-1,1s0.447,1,1,1h5
		C40.654,28.5,42,29.846,42,31.5z"/>
	<path d="M46,32.5c0.553,0,1-0.447,1-1c0-4.411-3.589-8-8-8h-6c-0.553,0-1,0.447-1,1s0.447,1,1,1h6c3.309,0,6,2.691,6,6
		C45,32.053,45.447,32.5,46,32.5z"/>
	<path d="M34,29.5c-0.553,0-1,0.447-1,1s0.447,1,1,1h5c0.553,0,1-0.447,1-1s-0.447-1-1-1H34z"/>
	<path d="M28,32.5c0.553,0,1-0.447,1-1c0-12.397-5.438-15-10-15c-1.654,0-3,1.346-3,3c0,0.553,0.447,1,1,1s1-0.447,1-1
		c0-0.552,0.448-1,1-1c5.383,0,8,4.252,8,13C27,32.053,27.447,32.5,28,32.5z"/>
	<path d="M13,22.5c0.553,0,1-0.447,1-1v-1c0-2.757,2.243-5,5-5c9.928,0,11,11.189,11,16c0,0.553,0.447,1,1,1s1-0.447,1-1
		c0-11.271-4.859-18-13-18c-3.859,0-7,3.141-7,7v1C12,22.053,12.447,22.5,13,22.5z"/>
	<path d="M33,19.5c2.206,0,4-1.794,4-4s-1.794-4-4-4s-4,1.794-4,4S30.794,19.5,33,19.5z M33,13.5c1.103,0,2,0.897,2,2s-0.897,2-2,2
		s-2-0.897-2-2S31.897,13.5,33,13.5z"/>
	<path d="M25.5,14.5c2.481,0,4.5-2.019,4.5-4.5s-2.019-4.5-4.5-4.5S21,7.519,21,10S23.019,14.5,25.5,14.5z M25.5,7.5
		c1.379,0,2.5,1.121,2.5,2.5s-1.121,2.5-2.5,2.5S23,11.379,23,10S24.121,7.5,25.5,7.5z"/>
	<path d="M38,16.5c0,2.206,1.794,4,4,4s4-1.794,4-4s-1.794-4-4-4S38,14.294,38,16.5z M42,14.5c1.103,0,2,0.897,2,2s-0.897,2-2,2
		s-2-0.897-2-2S40.897,14.5,42,14.5z"/>
	<path d="M36,11.5c2.206,0,4-1.794,4-4s-1.794-4-4-4s-4,1.794-4,4S33.794,11.5,36,11.5z M36,5.5c1.103,0,2,0.897,2,2s-0.897,2-2,2
		s-2-0.897-2-2S34.897,5.5,36,5.5z"/>
</g>
</svg>
